:SAMPLES-PER-SECOND 30
:FULLY-SPECIFIED
:DEGREES
555
root  -36.2325 38.4083 -5.82894 1.20669 -81.4979 -6.15926
RightUpLeg  -18.3438 -12.8643 2.45151
RightLeg  31.8043 1.73317 0.896842
RightFoot  -6.78803 0.129274 -4.4187
RightToes  4.01633e-009 0 -3.6325e-017
Spine  6.62137 -1.76054 11.07
Spine1  17.0995 -1.89025 4.12983
HEad  1.13774 -2.0648 -7.14468
LeftShoulder1  0.166298 3.06295 -31.6036
LeftArm  -0.0528932 2.01544 -35.4075
LeftForeArm  31.61 -74.1912 -41.2001
LeftHand  0.0462242 2.30338 -2.25189
RightShoulder  -0.378999 -4.59765 27.604
RightArm  -12.4205 -16.0008 30.2945
RightForeArm  100.546 76.7483 123.45
RightHand  -0.148018 -0.173087 -3.30565
LeftUpLeg  -15.813 12.5879 4.57787
LeftLeg  69.259 -1.38834 -3.2581
LeftFoot  5.23416 0.509107 -3.68239
LeftToes  -1.95724e-009 9.62483e-011 3.51777e-011
556
root  -37.3739 38.696 -5.7033 -1.29999 -81.3606 -2.80065
RightUpLeg  -16.6449 -13.9174 1.66987
RightLeg  30.8285 2.43836 1.31227
RightFoot  -8.04507 0.0662944 -4.16501
RightToes  4.01633e-009 0 -3.6325e-017
Spine  5.8134 -1.68075 11.6582
Spine1  17.0629 -1.71166 3.24936
HEad  1.48529 -2.02392 -7.27952
LeftShoulder1  0.103554 3.22845 -31.5223
LeftArm  -0.684628 2.60257 -34.8755
LeftForeArm  32.5561 -74.5078 -42.3141
LeftHand  0.0447506 2.31895 -2.21844
RightShoulder  -0.377118 -4.59327 27.5613
RightArm  -11.7327 -14.9677 30.8741
RightForeArm  99.3085 76.9602 122.019
RightHand  -0.156282 -0.549283 -3.70509
LeftUpLeg  -20.8585 12.5247 2.93807
LeftLeg  66.449 -2.00403 -4.34642
LeftFoot  2.74754 0.304295 -2.63395
LeftToes  -1.95724e-009 9.62483e-011 3.51777e-011
557
root  -38.5462 38.9267 -5.58147 -6.99134 -80.9565 3.4049
RightUpLeg  -14.5846 -15.1974 0.185776
RightLeg  30.197 3.43764 1.90367
RightFoot  -9.73304 -0.0140521 -3.72234
RightToes  4.01633e-009 0 -3.6325e-017
Spine  5.00535 -1.48409 11.1368
Spine1  17.3155 -1.73461 3.31324
HEad  1.7519 -2.0201 -7.5299
LeftShoulder1  0.0820138 3.28834 -31.8887
LeftArm  -1.09815 2.74205 -34.2528
LeftForeArm  32.9878 -74.6042 -42.6297
LeftHand  0.0339788 2.87637 -2.33264
RightShoulder  -0.32705 -4.45537 27.2122
RightArm  -11.5091 -14.2803 31.6837
RightForeArm  97.1985 77.2283 119.964
RightHand  -0.169725 -0.103087 -3.74117
LeftUpLeg  -24.2901 11.926 1.05716
LeftLeg  60.8281 -2.50839 -4.31323
LeftFoot  0.372509 0.320432 -3.13015
LeftToes  -1.95724e-009 9.62483e-011 3.51777e-011
558
root  -39.7302 39.1453 -5.45867 -12.496 -81.2057 9.36312
RightUpLeg  -12.2564 -15.4082 -1.17741
RightLeg  29.0123 3.97256 2.12674
RightFoot  -11.1936 -0.0707724 -3.58724
RightToes  4.01633e-009 0 -3.6325e-017
Spine  4.00644 -0.940365 10.8026
Spine1  17.8755 -1.20337 2.57201
HEad  1.51522 -2.25425 -7.4698
LeftShoulder1  0.147482 3.11276 -31.731
LeftArm  -1.44281 2.91368 -33.9018
LeftForeArm  32.7332 -74.4885 -42.1751
LeftHand  0.0670316 1.9988 -2.74125
RightShoulder  -0.346083 -4.51195 27.1839
RightArm  -11.4122 -13.8036 32.3939
RightForeArm  96.5792 77.4082 118.717
RightHand  -0.151734 -0.604014 -3.6316
LeftUpLeg  -26.2258 11.9595 -0.463065
LeftLeg  52.6882 -2.58047 -3.22342
LeftFoot  -0.749816 0.261874 -2.7842
LeftToes  -1.95724e-009 9.62483e-011 3.51777e-011
559
root  -40.8254 39.3162 -5.26677 -14.7226 -80.1164 12.0986
RightUpLeg  -9.9901 -17.0709 -2.56541
RightLeg  27.8522 4.80064 2.50913
RightFoot  -12.4777 -0.117988 -3.36528
RightToes  4.01633e-009 0 -3.6325e-017
Spine  3.52816 -1.23413 10.9708
Spine1  17.4716 -1.37674 1.41747
HEad  1.29679 -2.60874 -6.79181
LeftShoulder1  0.2208 2.90719 -30.8543
LeftArm  -1.95626 3.5271 -33.9686
LeftForeArm  32.6881 -74.5391 -42.4189
LeftHand  0.0574762 2.39123 -2.80529
RightShoulder  -0.41249 -4.68494 27.9488
RightArm  -10.8039 -13.102 32.3618
RightForeArm  94.9828 77.5964 117.061
RightHand  -0.141819 -0.551862 -3.35995
LeftUpLeg  -27.2973 9.99257 -1.79349
LeftLeg  42.4178 -2.25385 -1.79464
LeftFoot  -0.271616 0.301711 -3.08129
LeftToes  -1.95724e-009 9.62483e-011 3.51777e-011
560
root  -41.9171 39.4151 -5.12679 -14.4463 -80.7309 12.7132
RightUpLeg  -8.39368 -16.5464 -2.7342
RightLeg  26.4997 4.99307 2.5867
RightFoot  -13.5475 -0.155281 -3.31518
RightToes  4.01633e-009 0 -3.6325e-017
Spine  2.21842 -0.727224 11.2886
Spine1  17.9572 -0.993906 0.869026
HEad  1.06452 -2.28772 -6.62238
LeftShoulder1  0.152128 3.09215 -30.8318
LeftArm  -2.01868 3.23488 -33.6339
LeftForeArm  31.9041 -74.4169 -42.0969
LeftHand  0.0513367 2.13733 -2.3038
RightShoulder  -0.380419 -4.59458 27.8272
RightArm  -10.5113 -12.598 32.9833
RightForeArm  93.5507 77.8065 115.206
RightHand  -0.136886 -0.588237 -3.2565
LeftUpLeg  -27.5922 9.68407 -1.82191
LeftLeg  30.751 -2.53302 -1.25767
LeftFoot  0.828672 0.450427 -4.27703
LeftToes  -1.95724e-009 9.62483e-011 3.51777e-011
561
root  -43.0103 39.4825 -4.96574 -13.9807 -81.1247 13.0275
RightUpLeg  -6.52383 -16.0529 -3.02546
RightLeg  24.9019 4.91305 2.64129
RightFoot  -14.6404 -0.18974 -3.14839
RightToes  4.01633e-009 0 -3.6325e-017
Spine  1.08462 -0.207971 11.1811
Spine1  18.3034 -0.762079 0.991297
HEad  1.11232 -2.49925 -6.57149
LeftShoulder1  0.190193 2.99306 -31.1337
LeftArm  -2.27965 3.25853 -33.6099
LeftForeArm  31.4942 -74.279 -41.6076
LeftHand  0.0519128 1.93898 -2.1003
RightShoulder  -0.376461 -4.58431 27.7845
RightArm  -10.2924 -12.1133 33.1474
RightForeArm  92.1706 77.9468 113.746
RightHand  -0.12737 -0.906894 -3.2049
LeftUpLeg  -26.8322 7.93831 -1.36719
LeftLeg  18.1857 -1.5026 -0.419018
LeftFoot  1.38476 0.535325 -4.87935
LeftToes  -1.95724e-009 9.62483e-011 3.51777e-011
562
root  -44.137 39.4661 -4.74038 -11.6407 -81.3453 11.3296
RightUpLeg  -4.63513 -16.0419 -3.26953
RightLeg  23.8248 5.07379 2.83291
RightFoot  -15.9297 -0.228171 -3.01023
RightToes  4.01633e-009 0 -3.6325e-017
Spine  -0.0473596 -0.0283997 11.4044
Spine1  18.6616 -0.747908 0.782225
HEad  1.35595 -2.41749 -6.12969
LeftShoulder1  0.179346 3.0207 -31.0111
LeftArm  -2.34505 3.51289 -33.5146
LeftForeArm  31.0595 -74.1643 -41.238
LeftHand  0.0480553 2.21829 -2.01308
RightShoulder  -0.374758 -4.57628 27.8806
RightArm  -9.93695 -11.5275 33.3246
RightForeArm  89.1385 78.166 110.958
RightHand  -0.149751 -0.980132 -3.84265
LeftUpLeg  -25.4269 3.88725 0.350894
LeftLeg  5.77757 3.05893 0.178536
LeftFoot  1.96375 0.543874 -4.7525
LeftToes  -1.95724e-009 9.62483e-011 3.51777e-011
563
root  -45.3217 39.2622 -4.4149 -6.39194 -81.5137 6.70854
RightUpLeg  -3.1201 -16.57 -3.33626
RightLeg  23.8894 5.71164 3.28009
RightFoot  -18.0535 -0.287118 -2.81287
RightToes  4.01633e-009 0 -3.6325e-017
Spine  -1.48086 -0.0123842 12.107
Spine1  19.1346 -1.01341 0.646085
HEad  1.33301 -1.88947 -5.81235
LeftShoulder1  0.161927 3.06548 -30.8286
LeftArm  -2.75844 3.79908 -33.6372
LeftForeArm  31.1434 -74.1719 -41.2472
LeftHand  0.045112 2.42163 -2.14379
RightShoulder  -0.355151 -4.51491 27.9999
RightArm  -9.49839 -10.6032 33.5408
RightForeArm  85.4113 78.4659 106.848
RightHand  -0.150155 -0.791825 -3.71725
LeftUpLeg  -25.1482 0.55916 1.96628
LeftLeg  -3.04854 8.21193 0.235491
LeftFoot  1.22983 0.588812 -5.48058
LeftToes  -1.95724e-009 9.62483e-011 3.51777e-011
564
root  -46.5849 38.9463 -4.10772 -0.692298 -81.7914 1.45409
RightUpLeg  -1.5953 -16.3332 -3.15012
RightLeg  24.5065 5.82904 3.3811
RightFoot  -20.6411 -0.348125 -2.56327
RightToes  4.01633e-009 0 -3.6325e-017
Spine  -2.39889 0.239992 12.5217
Spine1  19.0331 -1.16447 1.07173
HEad  1.74051 -1.82151 -5.47587
LeftShoulder1  0.153007 3.08897 -30.7698
LeftArm  -2.57463 4.07293 -33.304
LeftForeArm  31.3285 -74.2649 -41.5928
LeftHand  0.0435208 2.40204 -2.25072
RightShoulder  -0.396912 -4.6279 28.2862
RightArm  -9.1149 -10.3106 33.3974
RightForeArm  84.041 78.5468 105.433
RightHand  -0.142333 -0.919001 -3.60225
LeftUpLeg  -26.6529 0.151487 2.33405
LeftLeg  -5.32478 10.5756 0.838559
LeftFoot  -1.40093 0.672044 -7.57869
LeftToes  -1.95724e-009 9.62483e-011 3.51777e-011
565
root  -47.8183 38.5942 -3.78737 5.20159 -81.4682 -4.12526
RightUpLeg  0.0545728 -16.3546 -2.90612
RightLeg  25.1404 5.73194 3.21352
RightFoot  -23.0508 -0.361623 -2.01264
RightToes  4.01633e-009 0 -3.6325e-017
Spine  -2.76063 0.0996415 12.795
Spine1  19.0486 -1.47213 1.39553
HEad  1.70723 -1.91898 -5.05505
LeftShoulder1  0.185815 2.99947 -30.7253
LeftArm  -2.57622 3.96421 -33.1836
LeftForeArm  31.1296 -74.1897 -41.3266
LeftHand  0.0433015 2.22408 -2.38784
RightShoulder  -0.386502 -4.60624 28.0134
RightArm  -8.8772 -10.4312 33.6549
RightForeArm  82.9156 78.5959 104.4
RightHand  -0.126968 -0.992607 -3.25008
LeftUpLeg  -27.6126 -0.1016 2.4984
LeftLeg  -5.02105 10.4092 1.14635
LeftFoot  -1.79339 0.646628 -7.59735
LeftToes  -1.95724e-009 9.62483e-011 3.51777e-011
566
root  -49.0554 38.2333 -3.52132 9.86746 -81.256 -8.53145
RightUpLeg  1.77041 -16.1919 -2.69676
RightLeg  25.718 5.72827 2.98945
RightFoot  -25.3379 -0.295954 -1.01036
RightToes  4.01633e-009 0 -3.6325e-017
Spine  -2.7339 -0.0436403 12.5037
Spine1  19.4079 -1.5263 1.52446
HEad  1.17804 -2.24123 -4.2403
LeftShoulder1  0.204115 2.94371 -30.3566
LeftArm  -2.16817 3.25939 -33.2203
LeftForeArm  30.3026 -73.9389 -40.5152
LeftHand  0.0411862 1.96899 -2.08298
RightShoulder  -0.351407 -4.50401 27.9945
RightArm  -8.88698 -10.7691 33.7705
RightForeArm  81.0825 78.6652 102.754
RightHand  -0.130397 -1.29002 -3.52087
LeftUpLeg  -28.0271 0.367426 2.38396
LeftLeg  -3.07822 9.42151 0.752949
LeftFoot  1.29508 0.587496 -5.40142
LeftToes  -1.95724e-009 9.62483e-011 3.51777e-011
567
root  -50.281 37.9641 -3.22769 8.13672 -81.7097 -6.11543
RightUpLeg  2.90544 -15.4908 -3.62798
RightLeg  26.4313 5.79678 2.88011
RightFoot  -27.0443 -0.129365 0.380145
RightToes  4.01633e-009 0 -3.6325e-017
Spine  -2.84403 -0.0024481 11.1869
Spine1  20.1913 -1.15784 1.13606
HEad  0.881661 -2.64096 -3.60496
LeftShoulder1  0.23195 2.86112 -30.0216
LeftArm  -1.92145 2.56147 -33.5324
LeftForeArm  29.4624 -73.6341 -39.5303
LeftHand  0.0365859 2.47662 -2.32375
RightShoulder  -0.395239 -4.61868 28.4214
RightArm  -8.55684 -10.8878 33.4121
RightForeArm  78.8706 78.7536 100.529
RightHand  -0.15992 -0.485337 -3.76577
LeftUpLeg  -28.797 0.0424825 1.48446
LeftLeg  -0.846339 7.93567 0.666922
LeftFoot  8.73552 0.283276 -2.01688
LeftToes  -1.95724e-009 9.62483e-011 3.51777e-011
